# AST/ASF file generated using VICON BodyLanguage
# -----------------------------------------------
:version 1.10
:name VICON
:units
  mass 1.0
  length 0.45
  angle deg
:documentation
   .ast/.asf automatically generated from VICON data using
   VICON BodyBuilder and BodyLanguage model FoxedUp or BRILLIANT.MOD
:root
   order TX TY TZ RX RY RZ
   axis XYZ
   position 0 0 0  
   orientation 0 0 0 
:bonedata
  begin
     id 1 
     name lhipjoint
     direction 0.535335 -0.74333 0.401095 
     length 2.04549 
     axis 0 0 0  XYZ
  end
  begin
     id 2 
     name lfemur
     direction 0.34202 -0.939693 0  
     length 6.95643  
     axis 0 0 20  XYZ
    dof rx ry rz
    limits (-160.0 20.0)
           (-70.0 70.0)
           (-60.0 70.0)
  end
  begin
     id 3 
     name ltibia
     direction 0.34192 -0.939729 0   
     length 5.55969   
     axis 0 0 20   XYZ
    dof rx
    limits (-10.0 170.0)
  end
  begin
     id 4 
     name lfoot
     direction 0.216943 -0.596046 0.773088   
     length 2.27918   
     axis -90 7.62852e-016 20   XYZ
    dof rx rz
    limits (-45.0 90.0)
           (-70.0 20.0)
  end
  begin
     id 5 
     name ltoes
     direction 1.53519e-011 -4.21748e-011 1   
     length 1.05562   
     axis -90 7.62852e-016 20   XYZ
    dof rx
    limits (-90.0 20.0)
  end
  begin
     id 6 
     name rhipjoint
     direction -0.576368 -0.719173 0.38806   
     length 2.1142  
     axis 0 0 0  XYZ 
  end
  begin
     id 7 
     name rfemur
     direction -0.34202 -0.939693 0   
     length 7.07928   
     axis 0 0 -20   XYZ
    dof rx ry rz
    limits (-160.0 20.0)
           (-70.0 70.0)
           (-70.0 60.0)
  end
  begin
     id 8 
     name rtibia
     direction -0.34202 -0.939693 0   
     length 5.79974   
     axis 0 0 -20   XYZ
    dof rx
    limits (-10.0 170.0)
 end
 begin
     id 9 
     name rfoot
     direction -0.189288 -0.520065 0.832888   
     length 2.42173  
     axis -90 -7.62852e-016 -20   XYZ
    dof rx rz
    limits (-45.0 90.0)
           (-20.0 70.0)
  end
  begin
     id 10 
     name rtoes
     direction -1.53574e-011 -4.21658e-011 1   
     length 1.14469   
     axis -90 -7.62852e-016 -20   XYZ
    dof rx
    limits (-90.0 20.0)
  end
  begin
     id 11 
     name lowerback
     direction -0.00135702 0.993803 0.111144   
     length 1.91308   
     axis 0 0 0   XYZ
    dof rx ry rz
    limits (-20.0 45.0)
           (-30.0 30.0)
           (-30.0 30.0)
  end
  begin
     id 12 
     name upperback
     direction -0.0056745 0.999813 0.0184631   
     length 1.9212   
     axis 0 0 0   XYZ
    dof rx ry rz
    limits (-20.0 45.0)
           (-30.0 30.0)
           (-30.0 30.0)
  end
  begin
     id 13 
     name thorax
     direction -0.00733434 0.999426 -0.0330788   
     length 1.94196   
     axis 0 0 0   XYZ
    dof rx ry rz
    limits (-20.0 45.0)
           (-30.0 30.0)
           (-30.0 30.0)
  end
  begin
     id 14 
     name lowerneck
     direction 0.0563074 0.996944 -0.0541571   
     length 2.34257   
     axis 0 0 0   XYZ
    dof rx ry rz
    limits (-20.0 45.0)
           (-30.0 30.0)
           (-30.0 30.0)
  end
  begin
     id 15 
     name upperneck
     direction -0.0544519 0.976166 -0.210085   
     length 2.32506   
     axis 0 0 0   XYZ
    dof rx ry rz
    limits (-20.0 45.0)
           (-30.0 30.0)
           (-30.0 30.0)
  end
  begin
     id 16
     name head
     direction -0.0226035 0.997615 -0.0652205  
     length 2.3648  
     axis 0 0 0   XYZ
    dof rx ry rz
    limits (-20.0 45.0)
           (-30.0 30.0)
           (-30.0 30.0)
  end
  begin
     id 17 
     name lclavicle
     direction 0.92109 0.381297 -0.0787716  
     length 4.0487  
     axis 0 0 0   XYZ
    dof ry rz
    limits (-20.0 10.0)
           (0.0 20.0)
  end
  begin
     id 18 
     name lhumerus
     direction 1 -4.48986e-011 3.56724e-027   
     length 4.94991   
     axis 180 -30 -90   XYZ
    dof rx ry rz
    limits (-60.0 90.0)
           (-90.0 90.0)
           (-90.0 90.0)
  end
  begin
     id 19
     name lradius
     direction 1 -4.48981e-011 8.62147e-027   
     length 2.7606   
     axis 180 -30 -90   XYZ
    dof rx
    limits (-10.0 170.0)
  end
  begin
     id 20
     name lwrist
     direction 1 -4.48989e-011 1.59799e-026   
     length 1.3803   
     axis -1.17785e-014 90 90   XYZ
    dof ry
    limits (-180.0 0.0)
 end
  begin
     id 21 
     name lhand
     direction 1 -4.48896e-011 3.19599e-026   
     length 0.843936   
     axis -2.03931e-014 90 90   XYZ
    dof rx rz
    limits (-90.0 90.0)
           (-45.0 45.0)
  end
  begin
     id 22 
     name lfingers
     direction 1 -4.48887e-011 6.39197e-026   
     length 0.680403   
     axis -4.07862e-014 90 90   XYZ
    dof rx
    limits (0.0 90.0)
  end
  begin
     id 23
     name lthumb
     direction 0.707107 -6.348e-011 0.707107   
     length 0.976926   
     axis -90 45 2.85299e-015   XYZ
    dof rx rz
    limits (-45.0 45.0)
           (-45.0 45.0)
  end
  begin
     id 24 
     name rclavicle
     direction -0.951104 0.307692 -0.026953   
     length 4.21801  
     axis 0 0 0   XYZ 
    dof ry rz
    limits (-10.0 20.0)
           (-20.0 0.0)
  end
  begin
     id 25 
     name rhumerus
     direction -1 -4.4896e-011 -1.8171e-018  
     length 4.32982   
     axis 180 30 90   XYZ
    dof rx ry rz
    limits (-90.0 60.0)
           (-90.0 90.0)
           (-90.0 90.0)
  end
  begin
     id 26 
     name rradius
     direction -1 -4.48959e-011 8.25165e-027   
     length 3.20057   
     axis 180 30 90   XYZ
    dof rx
    limits (-10.0 170.0)
  end
  begin
     id 27 
     name rwrist
     direction -1 -4.48997e-011 1.59799e-026   
     length 1.60029   
     axis -1.17785e-014 -90 -90   XYZ
    dof ry
    limits (-180.0 0.0)
  end
  begin
     id 28
     name rhand
     direction -1 -4.49023e-011 3.19599e-026   
     length 0.960433   
     axis -2.03931e-014 -90 -90   XYZ
    dof rx rz
    limits (-90.0 90.0)
           (-45.0 45.0)
  end
  begin
     id 29
     name rfingers
     direction -1 -4.48802e-011 6.39197e-026   
     length 0.774326   
     axis -4.07862e-014 -90 -90   XYZ
    dof rx
    limits (0.0 90.0)
  end
  begin
     id 30
     name rthumb
     direction -0.707107 -6.34876e-011 0.707107   
     length 1.11178   
     axis -90 -45 -2.85299e-015   XYZ
    dof rx rz
    limits (-45.0 45.0)
           (-45.0 45.0)
  end
:hierarchy
  begin
    root lhipjoint rhipjoint lowerback
    lhipjoint lfemur
    lfemur ltibia
    ltibia lfoot
    lfoot ltoes
    rhipjoint rfemur
    rfemur rtibia
    rtibia rfoot
    rfoot rtoes
    lowerback upperback
    upperback thorax
    thorax lowerneck lclavicle rclavicle
    lowerneck upperneck
    upperneck head
    lclavicle lhumerus
    lhumerus lradius
    lradius lwrist
    lwrist lhand lthumb
    lhand lfingers
    rclavicle rhumerus
    rhumerus rradius
    rradius rwrist
    rwrist rhand rthumb
    rhand rfingers
end

#!OML:ASF C:\KaitlinTest1\Natural Motions\Nikki\Session 2\Nikki.ASF
:FULLY-SPECIFIED
:DEGREES
355
root -12.3346 16.6426 4.36915 29.7448 85.7981 17.7505
lowerback -5.57353 -2.4676 1.3298
upperback -8.4104 -3.01515 0.262909
thorax -5.6786 -1.45035 -0.494955
lowerneck -11.5992 -8.95152 -11.5973
upperneck 5.5202 47.6717 5.41253
head 171.506 54.3418 -35.7314
rclavicle 2.4699e-014 1.13307e-014
rhumerus 8.11322 43.5288 -86.1427
rradius 80.8299
rwrist -15.7454
rhand -36.2198 8.30863
rfingers 7.12502
rthumb -9.32191 -21.4653
lclavicle 2.4699e-014 1.13307e-014
lhumerus 15.8149 -20.0465 69.52
lradius 88.3885
lwrist 20.9046
lhand -34.2679 -0.550269
lfingers 7.12502
lthumb -7.43817 29.299
rfemur -15.5012 -13.1721 20.7882
rtibia 19.868
rfoot -13.3087 6.91408
rtoes 3.97569e-014
lfemur -14.8753 8.66954 -19.94
ltibia 17.1273
lfoot -5.06825 -6.51302
ltoes 1.43125e-014
356
root -12.2994 16.6321 4.36435 29.1467 85.9371 17.5184
lowerback -5.80692 -2.41754 1.46745
upperback -8.38556 -2.95181 0.239379
thorax -5.52839 -1.42594 -0.606312
lowerneck -10.9889 -8.849 -11.893
upperneck 5.62591 47.4994 5.47963
head 172.018 54.4552 -35.2847
rclavicle 3.23274e-014 7.95139e-015
rhumerus 6.93043 43.6505 -86.3178
rradius 81.2271
rwrist -15.5603
rhand -36.2143 8.15987
rfingers 7.12502
rthumb -9.31662 -21.6143
lclavicle 3.23274e-014 7.95139e-015
lhumerus 14.8975 -20.3702 69.7954
lradius 89.0397
lwrist 20.8835
lhand -34.1305 -0.560824
lfingers 7.12502
lthumb -7.30552 29.2931
rfemur -14.7974 -13.706 20.7694
rtibia 19.5916
rfoot -13.4523 7.26397
rtoes 3.73715e-014
lfemur -14.5179 10.0936 -19.9726
ltibia 17.3785
lfoot -5.49063 -8.02663
ltoes 2.8625e-014
357
root -12.2621 16.6205 4.35771 28.8826 86.0637 17.5209
lowerback -6.10701 -2.38661 1.63445
upperback -8.42677 -2.91287 0.170692
thorax -5.41655 -1.41528 -0.781838
lowerneck -10.5053 -8.82558 -11.9449
upperneck 5.93222 47.8582 5.7036
head 172.225 54.1032 -35.1595
rclavicle 4.44781e-015 6.16232e-015
rhumerus 5.73499 43.7893 -86.6121
rradius 81.5216
rwrist -15.5931
rhand -36.1678 8.0608
rfingers 7.12502
rthumb -9.27175 -21.7153
lclavicle 4.44781e-015 6.16232e-015
lhumerus 13.888 -20.682 69.9416
lradius 89.6409
lwrist 20.7469
lhand -34.1559 -0.566831
lfingers 7.12502
lthumb -7.33004 29.2862
rfemur -14.2095 -14.767 20.7907
rtibia 19.3393
rfoot -13.7693 8.10136
rtoes 9.78021e-014
lfemur -14.2654 11.6028 -20.0383
ltibia 17.6674
lfoot -5.94582 -9.64172
ltoes 1.59028e-015
358
root -12.2319 16.6103 4.35501 29.1721 86.2643 18.0693
lowerback -6.2118 -2.38801 1.68986
upperback -8.55855 -2.90521 0.176629
thorax -5.50201 -1.41115 -0.807759
lowerneck -9.90579 -8.76789 -12.1421
upperneck 6.19672 48.0337 5.85694
head 172.462 53.923 -34.9437
rclavicle 6.69904e-014 -1.59028e-015
rhumerus 4.37496 43.8812 -86.77
rradius 81.9214
rwrist -16.0123
rhand -35.8986 8.24348
rfingers 7.12502
rthumb -9.01193 -21.544
lclavicle 6.69904e-014 -1.59028e-015
lhumerus 12.6979 -20.9771 70.2834
lradius 90.2568
lwrist 20.7828
lhand -34.0064 -0.616394
lfingers 7.12502
lthumb -7.18575 29.2416
rfemur -13.6895 -15.8124 20.8038
rtibia 19.1414
rfoot -14.0139 8.8667
rtoes 1.82882e-014
lfemur -14.0154 12.7183 -20.0287
ltibia 17.9184
lfoot -6.30835 -10.9575
ltoes 5.88403e-014
359
root -12.2006 16.6018 4.34692 29.4664 86.4263 18.4662
lowerback -6.48671 -2.48116 1.68919
upperback -8.71131 -3.015 0.267578
thorax -5.5101 -1.45805 -0.722404
lowerneck -9.43847 -8.6998 -12.2228
upperneck 6.47796 48.2838 5.97717
head 172.25 53.9182 -35.0323
rclavicle 3.10104e-014 8.34896e-015
rhumerus 2.81251 44.2994 -87.2858
rradius 82.3304
rwrist -15.9832
rhand -35.9511 7.77407
rfingers 7.12502
rthumb -9.06265 -22.0112
lclavicle 3.10104e-014 8.34896e-015
lhumerus 11.3648 -20.9361 70.723
lradius 90.8279
lwrist 20.6833
lhand -33.6958 -0.680512
lfingers 7.12502
lthumb -6.88588 29.1875
rfemur -13.412 -17.2063 20.8516
rtibia 18.9992
rfoot -14.2582 10.053
rtoes 1.51076e-014
lfemur -13.8615 13.3934 -20.0276
ltibia 18.1077
lfoot -6.64437 -11.7502
ltoes 3.02153e-014
360
root -12.173 16.5911 4.3423 30.8244 86.6565 19.9286
lowerback -6.71995 -2.51562 1.72315
upperback -8.83694 -3.05205 0.257997
thorax -5.51841 -1.47456 -0.758913
lowerneck -8.93026 -8.61774 -12.3899
upperneck 6.67885 48.3796 6.11825
head 172.566 53.8577 -34.7823
rclavicle -2.39536e-014 4.17448e-015
rhumerus 1.24143 44.3415 -87.6744
rradius 82.5076
rwrist -15.9047
rhand -35.9806 7.9652
rfingers 7.12502
rthumb -9.09105 -21.8189
lclavicle -2.39536e-014 4.17448e-015
lhumerus 10.0899 -21.132 71.1304
lradius 91.4075
lwrist 20.3015
lhand -33.6257 -0.542295
lfingers 7.12502
lthumb -6.81822 29.3279
rfemur -13.1344 -18.4636 20.8676
rtibia 18.8464
rfoot -14.4636 11.0071
rtoes 6.99722e-014
lfemur -13.7305 14.0549 -20.0322
ltibia 18.254
lfoot -6.93484 -12.6805
ltoes 6.83819e-014
361
root -12.1404 16.5771 4.33702 30.6016 86.8644 19.8864
lowerback -6.96319 -2.55177 1.84307
upperback -8.9154 -3.09743 0.250436
thorax -5.47619 -1.50105 -0.842932
lowerneck -8.51333 -8.52551 -12.4555
upperneck 6.97744 48.7794 6.37837
head 172.957 53.5084 -34.5707
rclavicle 9.79014e-015 -2.98177e-015
rhumerus -0.435961 44.3541 -88.4435
rradius 82.5338
rwrist -15.5109
rhand -35.9568 8.03972
rfingers 7.12502
rthumb -9.06808 -21.7454
lclavicle 9.79014e-015 -2.98177e-015
lhumerus 8.77534 -21.2719 71.5261
lradius 91.9456
lwrist 20.0228
lhand -33.4463 -0.687159
lfingers 7.12502
lthumb -6.64502 29.1886
rfemur -12.7815 -19.8806 20.9229
rtibia 18.6895
rfoot -14.6598 12.2405
rtoes -4.21423e-014
lfemur -13.4281 14.3012 -19.8835
ltibia 18.367
lfoot -7.19686 -13.1288
ltoes -1.27222e-014
